:SAMPLES-PER-SECOND 30
:FULLY-SPECIFIED
:DEGREES
62
root  -4.34989 39.9383 -2.06885 47.4499 -85.4055 -52.262
RightUpLeg  6.04568 -1.58707 6.25244
RightLeg  9.89602 -21.0246 -1.52422
RightFoot  -10.0212 -0.0732626 0.461832
RightToes  -3.1126e-008 1.75238e-005 3.56266e-009
Spine  -9.13286 -0.22457 5.91662
Spine1  20.5112 0.0498785 0.252198
HEad  -10.6333 -20.6427 -24.4289
LeftShoulder1  3.61813 -6.64814 -29.6188
LeftArm  -39.5862 15.1671 -50.6798
LeftForeArm  64.5885 -15.1855 -1.40027
LeftHand  -0.651848 -2.10348 10.2974
RightShoulder  3.28793 6.31772 27.4977
RightArm  -7.24907 -20.1244 46.106
RightForeArm  24.6786 31.0469 5.40935
RightHand  -0.291843 3.81716 -3.93558
LeftUpLeg  -0.0838613 5.71472 10.6621
LeftLeg  20.4424 1.83793 1.0802
LeftFoot  -12.9339 -0.0346823 -8.05731
LeftToes  4.78349e-008 1.46828e-008 1.33736e-009
63
root  -4.33721 40.0452 -2.00569 51.2715 -85.9811 -55.6851
RightUpLeg  5.86168 -1.44538 5.83526
RightLeg  9.23029 -20.4933 -1.3584
RightFoot  -9.29528 -0.074714 0.653923
RightToes  -3.1126e-008 1.75238e-005 3.56266e-009
Spine  -9.03185 0.588992 5.06226
Spine1  19.6627 0.754515 0.766424
HEad  -10.7103 -18.319 -18.8791
LeftShoulder1  3.63388 -6.73652 -29.4621
LeftArm  -38.258 14.2999 -51.5991
LeftForeArm  64.1951 -16.7169 -1.72927
LeftHand  -0.706984 -3.21451 9.75958
RightShoulder  3.37735 6.49231 27.817
RightArm  -9.2927 -20.1519 45.8484
RightForeArm  24.1113 30.7181 5.36432
RightHand  -0.326199 4.36258 -4.15921
LeftUpLeg  0.303636 6.22814 10.2134
LeftLeg  18.9988 2.06057 1.10994
LeftFoot  -12.1829 0.0137514 -8.02425
LeftToes  4.78349e-008 1.46828e-008 1.33736e-009
64
root  -4.30307 40.1564 -1.90073 53.1211 -86.3639 -57.0537
RightUpLeg  5.7071 -1.24915 5.44959
RightLeg  8.22937 -20.3301 -1.17076
RightFoot  -8.43552 -0.0781813 0.823476
RightToes  -3.1126e-008 1.75238e-005 3.56266e-009
Spine  -8.81353 0.960178 4.3343
Spine1  18.8471 0.906873 1.42819
HEad  -10.4678 -15.9122 -14.1579
LeftShoulder1  3.53966 -6.50769 -29.3302
LeftArm  -35.9472 14.149 -52.9266
LeftForeArm  61.9379 -19.3613 -2.12492
LeftHand  -0.62725 -3.25192 8.66548
RightShoulder  3.32955 6.38788 27.6867
RightArm  -12.0552 -19.872 46.3533
RightForeArm  24.0139 30.6847 5.36293
RightHand  -0.254113 3.6392 -3.52129
LeftUpLeg  0.464818 6.21591 9.59651
LeftLeg  17.5957 2.61767 1.2509
LeftFoot  -11.338 0.0680805 -7.84064
LeftToes  4.78349e-008 1.46828e-008 1.33736e-009
65
root  -4.22125 40.2396 -1.79215 50.9214 -86.6673 -54.6125
RightUpLeg  5.57968 -1.11459 5.05513
RightLeg  7.60708 -20.4386 -1.24462
RightFoot  -7.77713 -0.0819902 0.963142
RightToes  -3.1126e-008 1.75238e-005 3.56266e-009
Spine  -8.11773 1.07129 3.28979
Spine1  17.7802 0.735649 2.51872
HEad  -10.7981 -13.7322 -10.3839
LeftShoulder1  3.62818 -6.77261 -29.2789
LeftArm  -33.1841 14.2777 -53.8791
LeftForeArm  58.9641 -21.3332 -2.29545
LeftHand  -0.705175 -3.70804 9.25713
RightShoulder  3.44976 6.59144 28.2143
RightArm  -14.4444 -18.746 46.2445
RightForeArm  24.8854 29.1596 4.95717
RightHand  -0.200061 3.70471 -2.81184
LeftUpLeg  0.599768 5.95133 8.90263
LeftLeg  16.5135 3.11442 1.36182
LeftFoot  -10.6213 0.112075 -7.70932
LeftToes  4.78349e-008 1.46828e-008 1.33736e-009
66
root  -4.11909 40.269 -1.66411 42.5841 -86.6902 -46.1324
RightUpLeg  5.2521 -1.16848 4.61266
RightLeg  7.6859 -20.7904 -1.50153
RightFoot  -7.6502 -0.0832253 1.07325
RightToes  -3.1126e-008 1.75238e-005 3.56266e-009
Spine  -7.23339 0.640045 2.80412
Spine1  17.1602 0.179614 2.93817
HEad  -11.8541 -11.3979 -6.49033
LeftShoulder1  3.5797 -6.70212 -29.044
LeftArm  -29.1296 14.1149 -54.3633
LeftForeArm  55.9219 -22.9834 -2.40896
LeftHand  -0.737106 -3.46352 9.90427
RightShoulder  3.59849 6.91166 28.6003
RightArm  -15.3744 -17.3299 46.3198
RightForeArm  24.9219 28.126 4.71908
RightHand  -0.1952 3.73967 -2.74135
LeftUpLeg  0.462181 5.72685 8.22643
LeftLeg  16.0233 3.17168 1.35068
LeftFoot  -10.3624 0.126293 -7.51256
LeftToes  4.78349e-008 1.46828e-008 1.33736e-009
67
root  -4.01994 40.2413 -1.5439 34.2316 -86.2314 -37.7462
RightUpLeg  4.93513 -1.10256 4.50116
RightLeg  8.10635 -21.5492 -1.94342
RightFoot  -7.92175 -0.0904545 1.22089
RightToes  -3.1126e-008 1.75238e-005 3.56266e-009
Spine  -6.80793 0.164548 2.44242
Spine1  17.3576 -0.55074 3.68822
HEad  -13.3969 -9.16551 -2.83081
LeftShoulder1  3.65528 -6.89379 -29.1243
LeftArm  -26.014 13.0818 -54.3993
LeftForeArm  55.7599 -23.4047 -2.42354
LeftHand  -0.799142 -3.58783 10.5787
RightShoulder  3.66869 6.99487 29.0056
RightArm  -16.4276 -16.4249 46.2425
RightForeArm  25.5566 28.6069 4.79337
RightHand  -0.178968 3.30823 -2.63189
LeftUpLeg  0.0786313 5.98459 7.96389
LeftLeg  16.1706 2.44387 1.11938
LeftFoot  -10.571 0.11073 -7.01654
LeftToes  4.78349e-008 1.46828e-008 1.33736e-009
68
root  -3.92231 40.1905 -1.43804 26.8679 -85.1897 -30.5709
RightUpLeg  5.00848 -1.17382 4.56996
RightLeg  8.25055 -22.6257 -2.14737
RightFoot  -8.13112 -0.0812151 1.14314
RightToes  -3.1126e-008 1.75238e-005 3.56266e-009
Spine  -6.76818 -0.412037 1.8721
Spine1  18.6859 -1.65153 5.19269
HEad  -15.4717 -7.84588 -0.427787
LeftShoulder1  3.81581 -7.21571 -29.5774
LeftArm  -23.7248 11.1867 -54.2567
LeftForeArm  56.5763 -23.0442 -2.47152
LeftHand  -0.802959 -3.62896 10.5895
RightShoulder  3.60512 6.89503 28.7239
RightArm  -17.0732 -14.9686 46.7083
RightForeArm  25.3952 28.6998 4.82384
RightHand  -0.143392 3.66203 -2.09327
LeftUpLeg  -0.42966 5.80115 7.94536
LeftLeg  16.8567 1.55379 0.851313
LeftFoot  -10.9203 0.0888441 -6.41563
LeftToes  4.78349e-008 1.46828e-008 1.33736e-009
69
root  -3.83968 40.1605 -1.35882 19.9702 -84.1597 -23.7871
RightUpLeg  5.03466 -1.33218 4.43621
RightLeg  8.40399 -23.6185 -2.44118
RightFoot  -8.2839 -0.0858464 1.28986
RightToes  -3.1126e-008 1.75238e-005 3.56266e-009
Spine  -6.81683 -0.844317 1.10494
Spine1  19.6474 -2.55652 6.62983
HEad  -17.3401 -7.45426 1.46633
LeftShoulder1  3.91528 -7.47432 -29.6467
LeftArm  -25.542 8.6575 -54.6133
LeftForeArm  62.5634 -20.639 -2.6715
LeftHand  -0.809334 -4.36283 9.89859
RightShoulder  3.67116 6.95941 29.1506
RightArm  -17.3385 -14.7986 46.4241
RightForeArm  24.6984 29.8962 5.13834
RightHand  -0.152377 3.81316 -2.17869
LeftUpLeg  -0.934884 5.3518 7.65102
LeftLeg  17.375 0.930654 0.645906
LeftFoot  -10.9728 0.0851803 -6.06101
LeftToes  4.78349e-008 1.46828e-008 1.33736e-009
70
root  -3.76491 40.1481 -1.30587 15.7594 -83.046 -19.6555
RightUpLeg  5.11301 -1.54639 4.32186
RightLeg  8.35071 -24.5226 -2.48612
RightFoot  -8.19592 -0.0971313 1.51391
RightToes  -3.1126e-008 1.75238e-005 3.56266e-009
Spine  -6.73468 -1.24163 0.603624
Spine1  20.0963 -3.38509 7.89254
HEad  -18.6499 -7.10138 2.55556
LeftShoulder1  3.85973 -7.37856 -29.4461
LeftArm  -28.1812 6.3938 -55.2478
LeftForeArm  67.9501 -17.7061 -2.93977
LeftHand  -0.833457 -4.70111 9.87123
RightShoulder  3.78592 7.21435 29.3927
RightArm  -17.9033 -15.6309 46.5282
RightForeArm  24.5005 31.1609 5.44787
RightHand  -0.20619 4.03301 -2.81565
LeftUpLeg  -1.44943 5.31266 7.58599
LeftLeg  17.8508 -0.161864 0.262068
LeftFoot  -10.866 0.0891344 -5.8094
LeftToes  4.78349e-008 1.46828e-008 1.33736e-009
71
root  -3.72193 40.1598 -1.28146 13.5953 -82.4752 -17.3787
RightUpLeg  5.02546 -1.62002 4.19213
RightLeg  8.22458 -25.0274 -2.50662
RightFoot  -8.05602 -0.100066 1.55421
RightToes  -3.1126e-008 1.75238e-005 3.56266e-009
Spine  -6.91411 -1.44587 0.803556
Spine1  20.1946 -3.71222 8.10732
HEad  -18.8187 -6.53731 2.40447
LeftShoulder1  3.84613 -7.35699 -29.3915
LeftArm  -32.0076 4.79493 -55.764
LeftForeArm  71.9593 -15.0335 -2.42667
LeftHand  -0.768428 -4.66005 9.13481
RightShoulder  3.80513 7.17478 29.7085
RightArm  -18.1046 -16.4531 46.7253
RightForeArm  25.5083 31.9392 5.57982
RightHand  -0.246481 3.65033 -3.41761
LeftUpLeg  -1.85685 5.19246 7.409
LeftLeg  18.0024 -0.596003 0.103056
LeftFoot  -10.5865 0.101247 -5.7247
LeftToes  4.78349e-008 1.46828e-008 1.33736e-009
